<svg xmlns="http://www.w3.org/2000/svg" viewBox="0 0 44 44">
  <path fill="rgb(5.882353%,18.823529%,13.72549%)" d="M 1.441406 1.492188 C 2.882812 0.0234375 4.839844 0 4.839844 0 L 39.894531 0 C 39.894531 0 41.800781 0 43.242188 1.492188 C 44.683594 2.980469 44.707031 4.863281 44.707031 4.863281 L 44.707031 39.355469 C 44.707031 39.355469 44.734375 41.285156 43.242188 42.730469 C 41.75 44.171875 39.894531 44.21875 39.894531 44.21875 L 4.839844 44.246094 C 4.839844 44.246094 2.835938 44.246094 1.441406 42.777344 C 0.0507812 41.3125 0 39.378906 0 39.378906 L 0 4.890625 C 0 4.890625 0 2.933594 1.441406 1.464844 Z M 1.441406 1.492188 "/>
  <path fill="rgb(54.509804%,63.921569%,58.823529%)" d="M 5.671875 2.785156 L 6.601562 2.785156 C 8.269531 2.785156 9.941406 2.785156 11.609375 2.785156 L 14.640625 2.785156 C 18.308594 2.769531 21.976562 2.769531 25.640625 2.785156 C 30.125 2.765625 34.605469 2.765625 39.085938 2.785156 L 39.894531 2.785156 C 40.75 2.957031 41.042969 3.226562 41.554688 3.910156 C 41.679688 4.546875 41.679688 4.546875 41.679688 5.304688 L 41.679688 6.109375 L 41.652344 7.039062 L 41.652344 7.96875 L 41.628906 10.414062 L 41.605469 12.90625 L 41.554688 17.84375 L 38.378906 17.84375 L 38.378906 6.355469 L 6.355469 6.355469 L 6.355469 31.777344 L 9.535156 31.777344 L 9.535156 28.84375 L 12.710938 28.84375 L 12.710938 25.910156 L 15.644531 25.910156 L 15.644531 22.734375 L 18.578125 22.734375 L 18.578125 19.554688 L 21.511719 19.554688 L 21.511719 16.621094 L 24.6875 16.621094 L 24.6875 13.199219 L 12.710938 13.199219 L 12.710938 10.023438 L 27.378906 10.023438 L 27.378906 13.445312 L 30.066406 13.445312 L 30.066406 16.621094 L 33 16.621094 L 33 19.800781 L 35.6875 19.800781 L 35.6875 32.023438 L 33 32.023438 L 33 34.957031 L 30.066406 34.957031 L 30.066406 19.800781 L 21.753906 19.800781 L 21.753906 22.734375 C 21.707031 23.785156 21.609375 24.859375 21.511719 25.910156 L 18.578125 25.910156 L 18.578125 28.84375 L 15.644531 28.84375 L 15.644531 32.023438 L 12.464844 32.023438 L 12.464844 37.644531 L 38.378906 37.644531 L 38.378906 21.023438 L 41.554688 21.023438 C 41.644531 26.832031 41.695312 32.640625 41.703125 38.449219 L 41.703125 38.988281 C 41.703125 39.84375 41.652344 40.234375 41.019531 40.871094 C 40.210938 41.382812 39.796875 41.433594 38.816406 41.433594 L 37.890625 41.433594 C 36.234375 41.4375 34.582031 41.4375 32.925781 41.433594 L 29.921875 41.433594 C 26.269531 41.449219 22.621094 41.449219 18.96875 41.433594 C 14.527344 41.457031 10.085938 41.457031 5.648438 41.433594 L 4.839844 41.433594 C 3.984375 41.285156 3.714844 40.992188 3.179688 40.332031 C 2.859375 39.671875 2.910156 39.183594 2.882812 38.449219 L 2.882812 37.523438 C 2.84375 29.636719 2.816406 21.746094 2.8125 13.859375 C 2.828125 11.121094 2.820312 8.382812 2.785156 5.648438 L 2.785156 4.890625 C 3.128906 3.300781 4.15625 2.8125 5.671875 2.8125 Z M 5.671875 2.785156 "/>
  <path fill="rgb(61.960784%,52.156863%,36.078431%)" d="M 12.710938 10.023438 L 27.378906 10.023438 L 27.378906 13.445312 L 30.066406 13.445312 L 30.066406 16.621094 L 33 16.621094 L 33 19.800781 L 35.6875 19.800781 L 35.6875 32.023438 L 33 32.023438 L 33 34.957031 L 30.066406 34.957031 L 30.066406 19.800781 L 21.753906 19.800781 L 21.753906 22.734375 C 21.707031 23.785156 21.609375 24.859375 21.511719 25.910156 L 18.578125 25.910156 L 18.578125 28.84375 L 15.644531 28.84375 L 15.644531 32.023438 L 9.777344 32.023438 L 9.777344 28.84375 L 12.710938 28.84375 L 12.710938 25.910156 L 15.644531 25.910156 L 15.644531 22.734375 L 18.578125 22.734375 L 18.578125 19.554688 L 21.511719 19.554688 L 21.511719 16.621094 L 24.6875 16.621094 L 24.6875 13.199219 L 12.710938 13.199219 Z M 12.710938 10.023438 "/>
  <path fill="rgb(98.823529%,98.431373%,98.039216%)" d="M 5.648438 2.835938 L 6.601562 2.835938 C 8.269531 2.832031 9.941406 2.832031 11.609375 2.835938 L 14.03125 2.835938 C 17.910156 2.824219 21.789062 2.824219 25.667969 2.835938 C 30.148438 2.804688 34.628906 2.796875 39.109375 2.8125 L 39.917969 2.8125 C 40.773438 2.957031 41.066406 3.226562 41.578125 3.910156 C 41.703125 4.546875 41.703125 4.546875 41.703125 5.304688 L 41.703125 6.109375 L 41.679688 7.039062 L 41.679688 7.96875 L 41.652344 10.414062 L 41.628906 12.90625 L 41.554688 17.84375 L 38.378906 17.84375 L 38.378906 6.355469 L 6.355469 6.355469 L 6.355469 27.621094 L 3.179688 27.621094 C 3.105469 20.394531 3.0625 13.167969 3.054688 5.941406 L 3.054688 4.15625 C 3.179688 3.691406 3.179688 3.691406 3.570312 3.277344 C 4.300781 2.882812 4.816406 2.859375 5.648438 2.859375 Z M 5.648438 2.835938 "/>
  <path fill="rgb(34.901961%,74.901961%,23.921569%)" d="M 38.621094 21.265625 L 41.554688 21.265625 C 41.644531 27.003906 41.695312 32.738281 41.703125 38.476562 L 41.703125 39.011719 C 41.703125 39.867188 41.652344 40.234375 41.042969 40.871094 C 40.386719 41.308594 39.601562 41.507812 38.816406 41.433594 L 37.890625 41.433594 C 36.226562 41.433594 34.5625 41.433594 32.902344 41.433594 L 29.871094 41.410156 C 25.78125 41.40625 21.691406 41.390625 17.601562 41.359375 L 4.15625 41.3125 L 4.15625 41.066406 L 20.535156 41.066406 L 20.535156 38.132812 L 38.378906 37.890625 Z M 38.621094 21.265625 "/>
  <path fill="rgb(99.607843%,99.607843%,99.215686%)" d="M 12.710938 10.023438 L 27.378906 10.023438 L 27.378906 13.445312 L 30.066406 13.445312 L 30.066406 16.621094 L 24.6875 16.621094 L 24.6875 13.199219 L 12.710938 13.199219 Z M 12.710938 10.023438 "/>
  <path fill="rgb(48.235294%,57.254902%,55.686275%)" d="M 30.066406 19.800781 L 30.3125 19.800781 L 30.554688 31.777344 L 33 31.777344 L 33 20.042969 L 35.6875 20.042969 L 35.6875 32.023438 L 33 32.023438 L 33 34.957031 L 30.066406 34.957031 Z M 30.066406 19.800781 "/>
  <path fill="rgb(94.509804%,94.117647%,92.54902%)" d="M 30.066406 16.621094 L 33 16.621094 L 33 19.800781 L 35.6875 19.800781 L 35.6875 20.042969 L 33 20.042969 L 33 31.777344 L 30.3125 32.023438 Z M 30.066406 16.621094 "/>
  <path fill="rgb(22.352941%,29.411765%,20.784314%)" d="M 30.824219 9.753906 C 31.558594 9.753906 32.292969 9.753906 33.023438 9.753906 L 33.78125 9.753906 L 35.6875 9.777344 L 35.6875 13.199219 L 33.488281 13.199219 L 33.246094 19.554688 L 35.6875 19.554688 L 35.6875 19.800781 L 33 19.800781 L 33 16.621094 L 30.066406 16.621094 L 30.066406 13.445312 L 27.378906 13.445312 L 27.378906 13.199219 L 30.066406 13.199219 L 30.066406 11.636719 L 30.042969 10.730469 C 30.066406 9.800781 30.066406 9.800781 30.824219 9.753906 Z M 30.824219 9.753906 "/>
  <path fill="rgb(18.039216%,25.490196%,13.72549%)" d="M 21.753906 19.800781 L 24.6875 19.800781 C 24.714844 21.851562 24.617188 23.859375 24.445312 25.910156 L 21.511719 25.910156 C 21.511719 23.859375 21.558594 21.851562 21.753906 19.800781 Z M 21.753906 19.800781 "/>
  <path fill="rgb(58.823529%,50.588235%,34.509804%)" d="M 24.6875 16.621094 L 30.066406 16.621094 L 30.066406 19.800781 L 24.6875 19.800781 Z M 24.6875 16.621094 "/>
  <path fill="rgb(40%,48.235294%,42.352941%)" d="M 9.535156 10.023438 L 12.710938 10.023438 L 12.710938 13.199219 L 24.6875 13.199219 L 24.6875 16.621094 L 24.445312 16.621094 L 24.445312 13.445312 L 9.535156 13.445312 Z M 9.535156 10.023438 "/>
  <path fill="rgb(64.313725%,56.078431%,42.352941%)" d="M 30.066406 10.023438 L 33 10.023438 L 33 13.199219 L 30.3125 13.199219 L 30.3125 16.621094 L 30.066406 16.621094 L 30.066406 13.445312 L 27.378906 13.445312 L 27.378906 13.199219 L 30.066406 13.199219 Z M 30.066406 10.023438 "/>
  <path fill="rgb(98.039216%,97.647059%,97.647059%)" d="M 30.066406 16.621094 L 33 16.621094 L 33 19.800781 L 32.753906 19.800781 L 32.753906 17.109375 L 30.800781 17.355469 L 30.554688 31.535156 L 32.753906 31.535156 L 32.753906 20.042969 L 33 20.042969 L 33 31.777344 L 30.3125 32.023438 Z M 30.066406 16.621094 "/>
  <path fill="rgb(96.470588%,96.078431%,95.294118%)" d="M 9.65625 28.84375 L 12.589844 28.84375 L 12.589844 32.023438 L 9.65625 32.023438 Z M 9.65625 28.84375 "/>
  <path fill="rgb(98.039216%,98.039216%,97.647059%)" d="M 15.644531 22.734375 L 18.578125 22.734375 L 18.578125 25.910156 L 15.644531 25.910156 Z M 15.644531 22.734375 "/>
  <path fill="rgb(17.254902%,24.313725%,13.72549%)" d="M 15.644531 28.84375 L 18.578125 28.84375 L 18.578125 31.777344 L 15.644531 31.777344 Z M 15.644531 28.84375 "/>
  <path fill="rgb(61.176471%,50.980392%,35.294118%)" d="M 15.644531 25.910156 L 18.578125 25.910156 L 18.578125 28.84375 L 15.644531 28.84375 Z M 15.644531 25.910156 "/>
  <path fill="rgb(16.862745%,24.705882%,13.72549%)" d="M 18.578125 25.910156 L 21.511719 25.910156 L 21.511719 28.84375 L 18.578125 28.84375 Z M 18.578125 25.910156 "/>
  <path fill="rgb(99.215686%,99.215686%,98.823529%)" d="M 12.710938 25.910156 L 15.644531 25.910156 L 15.644531 28.84375 L 12.710938 28.84375 Z M 12.710938 25.910156 "/>
  <path fill="rgb(59.607843%,50.588235%,33.72549%)" d="M 21.632812 19.800781 L 24.566406 19.800781 L 24.566406 22.734375 L 21.632812 22.734375 Z M 21.632812 19.800781 "/>
  <path fill="rgb(99.607843%,99.607843%,99.215686%)" d="M 18.820312 19.800781 L 21.511719 19.800781 L 21.511719 22.734375 L 18.820312 22.734375 Z M 18.820312 19.800781 "/>
  <path fill="rgb(99.215686%,99.215686%,98.823529%)" d="M 21.753906 16.621094 L 24.445312 16.621094 L 24.445312 19.554688 L 21.753906 19.554688 Z M 21.753906 16.621094 "/>
  <path fill="rgb(57.254902%,64.313725%,63.137255%)" d="M 27.378906 16.621094 L 30.066406 16.621094 L 30.066406 19.554688 L 27.378906 19.554688 Z M 27.378906 16.621094 "/>
  <path fill="rgb(16.470588%,25.098039%,14.117647%)" d="M 12.957031 32.265625 L 15.644531 32.265625 L 15.644531 34.957031 L 12.957031 34.957031 Z M 12.957031 32.265625 "/>
  <path fill="rgb(16.862745%,25.098039%,13.72549%)" d="M 24.6875 19.800781 L 27.132812 19.800781 L 27.132812 22.734375 L 24.6875 22.734375 Z M 24.6875 19.800781 "/>
  <path fill="rgb(66.27451%,66.666667%,60%)" d="M 21.511719 16.621094 L 21.753906 16.621094 L 21.753906 19.554688 L 24.445312 19.554688 L 24.445312 16.621094 L 24.6875 16.621094 L 24.6875 19.800781 L 21.753906 19.800781 L 21.753906 22.734375 L 21.511719 22.734375 L 21.511719 19.800781 L 18.820312 19.800781 L 18.820312 25.667969 L 18.578125 25.667969 L 18.578125 19.554688 L 21.511719 19.554688 Z M 21.511719 16.621094 "/>
</svg>
