<svg xmlns="http://www.w3.org/2000/svg" shape-rendering="geometricPrecision" text-rendering="geometricPrecision" viewBox="0 0 183 181">
  <path fill="#0f3023" d="M5.9 6.1C11.8.1 19.8 0 19.8 0h143.4s7.8 0 13.7 6.1 6 13.8 6 13.8V161s.1 7.9-6 13.8-13.7 6.1-13.7 6.1l-143.4.1s-8.2 0-13.9-6S0 161.1 0 161.1V20s0-8 5.9-14Z"/>
  <path fill="#8ba396" d="M23.2 11.4H27a5890 5890 0 0 1 20.5 0h12.4a4486.4 4486.4 0 0 1 45 0 5473 5473 0 0 1 55 0h3.3c3.5.7 4.7 1.8 6.8 4.6.5 2.6.5 2.6.5 5.7V25l-.1 3.8v3.8l-.1 10-.1 10.2L170 73h-13V26H26v104h13v-12h13v-12h12V93h12V80h12V68h13V54H52V41h60v14h11v13h12v13h11v50h-11v12h-12V81H89v12c-.2 4.3-.6 8.7-1 13H76v12H64v13H51v23h106V86h13a5112.2 5112.2 0 0 1 .6 71.3v2.2c0 3.5-.2 5.1-2.8 7.7-3.3 2.1-5 2.3-9 2.3H155a7153.8 7153.8 0 0 1-20.3 0h-12.3a5457.8 5457.8 0 0 1-44.8 0 4949.5 4949.5 0 0 1-54.5 0h-3.3c-3.5-.6-4.6-1.8-6.8-4.5-1.3-2.7-1.1-4.7-1.2-7.7v-3.8a21378.5 21378.5 0 0 1-.3-96.8 1715.2 1715.2 0 0 0-.1-33.6V20c1.4-6.5 5.6-8.5 11.8-8.5Z"/>
  <path fill="#9e855c" d="M52 41h60v14h11v13h12v13h11v50h-11v12h-12V81H89v12c-.2 4.3-.6 8.7-1 13H76v12H64v13H40v-13h12v-12h12V93h12V80h12V68h13V54H52V41Z"/>
  <path fill="#fcfbfa" d="M23.1 11.6H27a9500.6 9500.6 0 0 1 20.5 0h9.9a7203 7203 0 0 1 47.6 0 5131.3 5131.3 0 0 1 55-.1h3.3c3.5.6 4.7 1.7 6.8 4.5.5 2.6.5 2.6.5 5.7V25l-.1 3.8v3.8l-.1 10-.1 10.2L170 73h-13V26H26v87H13a9911.2 9911.2 0 0 1-.5-88.7V17c.5-1.9.5-1.9 2.1-3.6 3-1.6 5.1-1.7 8.5-1.7Z"/>
  <path fill="#59bf3d" d="M158 87h12a4982.2 4982.2 0 0 1 .6 70.4v2.2c0 3.5-.2 5-2.7 7.6a14 14 0 0 1-9.1 2.3H155a7823.6 7823.6 0 0 1-20.4 0l-12.4-.1a6629.2 6629.2 0 0 1-50.2-.2l-55-.2v-1h67v-12l73-1 1-68Z"/>
  <path fill="#fefefd" d="M52 41h60v14h11v13h-22V54H52V41Z"/>
  <path fill="#7b928e" d="M123 81h1l1 49h10V82h11v49h-11v12h-12V81Z"/>
  <path fill="#f1f0ec" d="M123 68h12v13h11v1h-11v48l-11 1-1-63Z"/>
  <path fill="#394b35" d="M126.1 39.9a3725714.2 3725714.2 0 0 0 9 0h3.1l7.8.1v14h-9l-1 26h10v1h-11V68h-12V55h-11v-1h11v-6.4l-.1-3.7c.1-3.8.1-3.8 3.2-4Z"/>
  <path fill="#2e4123" d="M89 81h12c.1 8.4-.3 16.6-1 25H88c0-8.4.2-16.6 1-25Z"/>
  <path fill="#968158" d="M101 68h22v13h-22V68Z"/>
  <path fill="#667b6c" d="M39 41h13v13h49v14h-1V55H39V41Z"/>
  <path fill="#a48f6c" d="M123 41h12v13h-11v14h-1V55h-11v-1h11V41Z"/>
  <path fill="#faf9f9" d="M123 68h12v13h-1V70l-8 1-1 58h9V82h1v48l-11 1-1-63Z"/>
  <path fill="#f6f5f3" d="M39.5 118h12v13h-12v-13Z"/>
  <path fill="#fafaf9" d="M64 93h12v13H64V93Z"/>
  <path fill="#2c3e23" d="M64 118h12v12H64v-12Z"/>
  <path fill="#9c825a" d="M64 106h12v12H64v-12Z"/>
  <path fill="#2b3f23" d="M76 106h12v12H76v-12Z"/>
  <path fill="#fdfdfc" d="M52 106h12v12H52v-12Z"/>
  <path fill="#988156" d="M88.5 81h12v12h-12V81Z"/>
  <path fill="#fefefd" d="M77 81h11v12H77V81Z"/>
  <path fill="#fdfdfc" d="M89 68h11v12H89V68Z"/>
  <path fill="#92a4a1" d="M112 68h11v12h-11V68Z"/>
  <path fill="#2a4024" d="M53 132h11v11H53v-11Z"/>
  <path fill="#2b4023" d="M101 81h10v12h-10V81Z"/>
  <path fill="#a9aa99" d="M88 68h1v12h11V68h1v13H89v12h-1V81H77v24h-1V80h12V68Z"/>
</svg>
